<mxfile host="app.diagrams.net" modified="2023-10-17T20:02:22.410Z" agent="Mozilla/5.0 (Windows NT 10.0; Win64; x64) AppleWebKit/537.36 (KHTML, like Gecko) Chrome/118.0.0.0 Safari/537.36" version="22.0.4" etag="erM5vZK8_M9cj0MIkEjD" type="github">
  <diagram name="Page-1" id="3YRVX87D1Fkv1EemrKzS">
    <mxGraphModel>
      <root>
        <mxCell id="0" />
        <mxCell id="1" parent="0" />
      </root>
    </mxGraphModel>
  </diagram>
</mxfile>
